<?xml version="1.0" encoding="UTF-8" standalone="no"?><svg xmlns="http://www.w3.org/2000/svg" xmlns:xlink="http://www.w3.org/1999/xlink" contentStyleType="text/css" height="960px" preserveAspectRatio="none" style="width:1577px;height:960px;background:#FFFFFF;" version="1.1" viewBox="0 0 1577 960" width="1577px" zoomAndPan="magnify"><defs/><g><rect height="26.2969" style="stroke:#00000000;stroke-width:1.0;fill:none;" width="404" x="579.5" y="5"/><text fill="#000000" font-family="sans-serif" font-size="14" font-weight="bold" lengthAdjust="spacing" textLength="394" x="584.5" y="22.9951">Варианты использования приложения "Retailer"</text><!--MD5=[e3bb9a76d78c097a456e78b69b2bf9f2]
cluster Функционал клиента--><g id="cluster_Функционал клиента"><rect height="910" rx="2.5" ry="2.5" style="stroke:#181818;stroke-width:1.0;fill:none;" width="1463" x="108" y="44.2969"/><text fill="#000000" font-family="sans-serif" font-size="14" font-weight="bold" lengthAdjust="spacing" textLength="174" x="752.5" y="59.292">Функционал клиента</text></g><g id="elem_CheckProfile"><ellipse cx="275.7481" cy="218.1465" fill="#F1F1F1" rx="102.2481" ry="22.8496" style="stroke:#181818;stroke-width:0.5;"/><text fill="#000000" font-family="sans-serif" font-size="14" lengthAdjust="spacing" textLength="169" x="191.2481" y="220.9932">Просмотреть профиль</text></g><g id="elem_UpdateProfile"><ellipse cx="714.6144" cy="100.2198" fill="#F1F1F1" rx="90.1144" ry="20.4229" style="stroke:#181818;stroke-width:0.5;"/><text fill="#000000" font-family="sans-serif" font-size="14" lengthAdjust="spacing" textLength="142" x="643.6144" y="103.0664">Изменить профиль</text></g><g id="elem_ShopList"><ellipse cx="275.6907" cy="349.535" fill="#F1F1F1" rx="151.6907" ry="32.7381" style="stroke:#181818;stroke-width:0.5;"/><text fill="#000000" font-family="sans-serif" font-size="14" lengthAdjust="spacing" textLength="274" x="138.6907" y="352.3817">Просмотреть список торговых точек</text></g><g id="elem_ChooseShop"><ellipse cx="714.3479" cy="397.2665" fill="#F1F1F1" rx="147.8479" ry="31.9696" style="stroke:#181818;stroke-width:0.5;"/><text fill="#000000" font-family="sans-serif" font-size="14" lengthAdjust="spacing" textLength="266" x="581.3479" y="400.1131">Выбрать торговую точку для заказа</text></g><g id="elem_ShopProductsInfo"><ellipse cx="714.5139" cy="299.4997" fill="#F1F1F1" rx="144.0139" ry="31.2028" style="stroke:#181818;stroke-width:0.5;"/><text fill="#000000" font-family="sans-serif" font-size="14" lengthAdjust="spacing" textLength="258" x="585.5139" y="302.3463">Проверить наличие (цену) товаров</text></g><g id="elem_ShopInfo"><ellipse cx="714.7327" cy="194.3434" fill="#F1F1F1" rx="180.7327" ry="38.5465" style="stroke:#181818;stroke-width:0.5;"/><text fill="#000000" font-family="sans-serif" font-size="14" lengthAdjust="spacing" textLength="334" x="547.7327" y="197.1901">Просмотреть информацию о торговой точке</text></g><g id="elem_CliProductsListInfo"><ellipse cx="275.4811" cy="538.3931" fill="#F1F1F1" rx="110.9811" ry="24.5962" style="stroke:#181818;stroke-width:0.5;"/><text fill="#000000" font-family="sans-serif" font-size="14" lengthAdjust="spacing" textLength="188" x="181.4811" y="541.2398">Получить список товаров</text></g><g id="elem_ShopProductInfo"><ellipse cx="714.4233" cy="579.2815" fill="#F1F1F1" rx="135.4233" ry="29.4847" style="stroke:#181818;stroke-width:0.5;"/><text fill="#000000" font-family="sans-serif" font-size="14" lengthAdjust="spacing" textLength="240" x="594.4233" y="582.1282">Получить информацию о товаре</text></g><g id="elem_AddProductToCart"><ellipse cx="714.2652" cy="489.4499" fill="#F1F1F1" rx="113.7652" ry="25.153" style="stroke:#181818;stroke-width:0.5;"/><text fill="#000000" font-family="sans-serif" font-size="14" lengthAdjust="spacing" textLength="194" x="617.2652" y="492.2966">Добавить товар в корзину</text></g><g id="elem_CheckCart"><ellipse cx="275.5673" cy="699.5103" fill="#F1F1F1" rx="99.0673" ry="22.2135" style="stroke:#181818;stroke-width:0.5;"/><text fill="#000000" font-family="sans-serif" font-size="14" lengthAdjust="spacing" textLength="162" x="194.5673" y="702.357">Просмотреть корзину</text></g><g id="elem_RemoveProductFromCart"><ellipse cx="714.2754" cy="827.3519" fill="#F1F1F1" rx="75.7754" ry="17.5551" style="stroke:#181818;stroke-width:0.5;"/><text fill="#000000" font-family="sans-serif" font-size="14" lengthAdjust="spacing" textLength="108" x="657.2754" y="831.0995">Удалить товар</text></g><g id="elem_EditProductInCart"><ellipse cx="714.4476" cy="745.1864" fill="#F1F1F1" rx="134.9476" ry="29.3895" style="stroke:#181818;stroke-width:0.5;"/><text fill="#000000" font-family="sans-serif" font-size="14" lengthAdjust="spacing" textLength="239" x="594.9476" y="748.0331">Изменить кол-во единиц товара</text></g><g id="elem_ApplyOrder"><ellipse cx="714.4455" cy="662.486" fill="#F1F1F1" rx="81.4455" ry="18.6891" style="stroke:#181818;stroke-width:0.5;"/><text fill="#000000" font-family="sans-serif" font-size="14" lengthAdjust="spacing" textLength="122" x="652.3109" y="665.7058">Оформить заказ</text></g><g id="elem_TakeawayOrder"><ellipse cx="1094.3318" cy="698.1632" fill="#F1F1F1" rx="92.3318" ry="20.8664" style="stroke:#181818;stroke-width:0.5;"/><text fill="#000000" font-family="sans-serif" font-size="14" lengthAdjust="spacing" textLength="147" x="1020.8318" y="701.0099">Выбрать самовывоз</text></g><g id="elem_DeliveringOrder"><ellipse cx="1094.5368" cy="622.1042" fill="#F1F1F1" rx="87.0368" ry="19.8074" style="stroke:#181818;stroke-width:0.5;"/><text fill="#000000" font-family="sans-serif" font-size="14" lengthAdjust="spacing" textLength="135" x="1027.0368" y="624.9509">Выбрать доставку</text></g><g id="elem_ChooseAddressToDeliveryOrder"><ellipse cx="1424.6751" cy="622.3319" fill="#F1F1F1" rx="130.6751" ry="28.535" style="stroke:#181818;stroke-width:0.5;"/><text fill="#000000" font-family="sans-serif" font-size="14" lengthAdjust="spacing" textLength="230" x="1309.6751" y="625.1786">Указать адрес доставки заказа</text></g><g id="elem_OrdersList"><ellipse cx="275.5935" cy="825.1156" fill="#F1F1F1" rx="109.5935" ry="24.3187" style="stroke:#181818;stroke-width:0.5;"/><text fill="#000000" font-family="sans-serif" font-size="14" lengthAdjust="spacing" textLength="185" x="183.0935" y="827.9623">Получить список заказов</text></g><g id="elem_OrderInfo"><ellipse cx="714.4969" cy="909.4962" fill="#F1F1F1" rx="133.9969" ry="29.1994" style="stroke:#181818;stroke-width:0.5;"/><text fill="#000000" font-family="sans-serif" font-size="14" lengthAdjust="spacing" textLength="237" x="595.9969" y="912.3429">Получить информацию о заказе</text></g><!--MD5=[17b342a17091e2dc73df905bcbb9a63c]
entity Cli--><g id="elem_Cli"><ellipse cx="33.5" cy="508.7969" fill="#F1F1F1" rx="8" ry="8" style="stroke:#181818;stroke-width:0.5;"/><path d="M33.5,516.7969 L33.5,543.7969 M20.5,524.7969 L46.5,524.7969 M33.5,543.7969 L20.5,558.7969 M33.5,543.7969 L46.5,558.7969 " fill="none" style="stroke:#181818;stroke-width:0.5;"/><text fill="#000000" font-family="sans-serif" font-size="14" lengthAdjust="spacing" textLength="55" x="6" y="573.292">Клиент</text></g><!--MD5=[6067f9fa56097e5954c0abe0b4f79448]
link Cli to ShopList--><g id="link_Cli_ShopList"><path d="M61.1,517.3469 C102.06,485.0969 180.99,422.9369 230.53,383.9169 " fill="none" id="Cli-to-ShopList" style="stroke:#181818;stroke-width:1.0;"/><polygon fill="#181818" points="234.64,380.6869,225.0915,383.1005,230.7079,383.7754,230.033,389.3918,234.64,380.6869" style="stroke:#181818;stroke-width:1.0;"/></g><!--MD5=[804380bb230811bd8c8f652427b7cada]
link ShopList to ShopInfo--><g id="link_ShopList_ShopInfo"><path d="M347.36,320.6369 C398.83,300.1669 470.33,272.4469 534,250.2969 C556.6,242.4369 580.97,234.4869 604.24,227.1469 " fill="none" id="ShopList-to-ShopInfo" style="stroke:#181818;stroke-width:1.0;stroke-dasharray:7.0,7.0;"/><polygon fill="#181818" points="609.19,225.5869,599.4047,224.4701,604.4201,227.0864,601.8039,232.1019,609.19,225.5869" style="stroke:#181818;stroke-width:1.0;"/><text fill="#000000" font-family="sans-serif" font-size="13" lengthAdjust="spacing" textLength="45" x="458" y="259.3638">include</text></g><!--MD5=[20c6b56921887d7003228566dc3680bc]
link ShopList to ChooseShop--><g id="link_ShopList_ChooseShop"><path d="M408.58,364.8369 C424.88,366.6969 441.32,368.5569 457,370.2969 C495.44,374.5569 537.14,379.0169 575.52,383.0569 " fill="none" id="ShopList-to-ChooseShop" style="stroke:#181818;stroke-width:1.0;stroke-dasharray:7.0,7.0;"/><polygon fill="#181818" points="580.67,383.5969,572.1279,378.6945,575.6964,383.0838,571.3071,386.6523,580.67,383.5969" style="stroke:#181818;stroke-width:1.0;"/><text fill="#000000" font-family="sans-serif" font-size="13" lengthAdjust="spacing" textLength="45" x="458" y="366.3638">include</text></g><!--MD5=[2c265ac1cf18bf4d18f07cf968cd0256]
link ShopList to ShopProductsInfo--><g id="link_ShopList_ShopProductsInfo"><path d="M409.69,334.0569 C464.29,327.8069 527.32,320.5969 581.77,314.3669 " fill="none" id="ShopList-to-ShopProductsInfo" style="stroke:#181818;stroke-width:1.0;stroke-dasharray:7.0,7.0;"/><polygon fill="#181818" points="587.01,313.7669,577.6121,310.8208,582.0427,314.3378,578.5256,318.7684,587.01,313.7669" style="stroke:#181818;stroke-width:1.0;"/><text fill="#000000" font-family="sans-serif" font-size="13" lengthAdjust="spacing" textLength="45" x="458" y="320.3638">include</text></g><!--MD5=[32c727398edbb3823fa20be1cdda53d4]
link Cli to CliProductsListInfo--><g id="link_Cli_CliProductsListInfo"><path d="M61.1,538.2969 C85.18,538.2969 122.39,538.2969 159.03,538.2969 " fill="none" id="Cli-to-CliProductsListInfo" style="stroke:#181818;stroke-width:1.0;"/><polygon fill="#181818" points="164.44,538.2969,155.44,534.2969,159.44,538.2969,155.44,542.2969,164.44,538.2969" style="stroke:#181818;stroke-width:1.0;"/></g><!--MD5=[41296407c6a90132a3c09a1388cf6087]
link CliProductsListInfo to AddProductToCart--><g id="link_CliProductsListInfo_AddProductToCart"><path d="M374.84,527.2669 C444.03,519.5069 536.55,509.1369 607.4,501.1969 " fill="none" id="CliProductsListInfo-to-AddProductToCart" style="stroke:#181818;stroke-width:1.0;stroke-dasharray:7.0,7.0;"/><polygon fill="#181818" points="612.47,500.6269,603.0796,497.6571,607.5013,501.1853,603.9731,505.607,612.47,500.6269" style="stroke:#181818;stroke-width:1.0;"/><text fill="#000000" font-family="sans-serif" font-size="13" lengthAdjust="spacing" textLength="45" x="458" y="510.3638">include</text></g><!--MD5=[a9e20ef82fd2df3233cb64bab547630a]
link CliProductsListInfo to ShopProductInfo--><g id="link_CliProductsListInfo_ShopProductInfo"><path d="M364.43,553.1369 C393.79,557.6469 426.74,562.2169 457,565.2969 C495.43,569.2069 537.21,572.0769 575.69,574.1569 " fill="none" id="CliProductsListInfo-to-ShopProductInfo" style="stroke:#181818;stroke-width:1.0;stroke-dasharray:7.0,7.0;"/><polygon fill="#181818" points="580.85,574.4369,572.0808,569.9535,575.8574,574.1651,571.6459,577.9417,580.85,574.4369" style="stroke:#181818;stroke-width:1.0;"/><text fill="#000000" font-family="sans-serif" font-size="13" lengthAdjust="spacing" textLength="45" x="458" y="561.3638">include</text></g><!--MD5=[6024fd520c61a01e1b7d5def2545aea9]
link Cli to OrdersList--><g id="link_Cli_OrdersList"><path d="M38.18,576.4769 C44.21,620.2269 59.88,691.8469 100,738.2969 C126.79,769.3169 167.26,790.4469 202.49,804.1169 " fill="none" id="Cli-to-OrdersList" style="stroke:#181818;stroke-width:1.0;"/><polygon fill="#181818" points="207.2,805.9069,200.2215,798.957,202.5296,804.1216,197.365,806.4296,207.2,805.9069" style="stroke:#181818;stroke-width:1.0;"/></g><!--MD5=[d2f4681e6d802c7c9bd19a47898f6760]
link OrdersList to OrderInfo--><g id="link_OrdersList_OrderInfo"><path d="M350.94,843.2169 C383.42,850.7669 422,859.3969 457,866.2969 C503.6,875.4869 555.21,884.3869 599.85,891.6769 " fill="none" id="OrdersList-to-OrderInfo" style="stroke:#181818;stroke-width:1.0;stroke-dasharray:7.0,7.0;"/><polygon fill="#181818" points="604.98,892.5169,596.7372,887.1266,600.0446,891.7158,595.4554,895.0232,604.98,892.5169" style="stroke:#181818;stroke-width:1.0;"/><text fill="#000000" font-family="sans-serif" font-size="13" lengthAdjust="spacing" textLength="45" x="458" y="862.3638">include</text></g><!--MD5=[eb345b58091a9df7d2aa7d5bccedd9b1]
link Cli to CheckCart--><g id="link_Cli_CheckCart"><path d="M61.1,556.1369 C104.46,585.2269 190.4,642.8769 238.94,675.4469 " fill="none" id="Cli-to-CheckCart" style="stroke:#181818;stroke-width:1.0;"/><polygon fill="#181818" points="243.24,678.3269,238.0034,669.9855,239.0908,675.5369,233.5394,676.6243,243.24,678.3269" style="stroke:#181818;stroke-width:1.0;"/></g><!--MD5=[88636d4e97166afe780e986591c59eda]
link CheckCart to RemoveProductFromCart--><g id="link_CheckCart_RemoveProductFromCart"><path d="M323.25,718.6569 C374.32,739.2069 458.86,771.5369 534,792.2969 C570.61,802.4069 612.19,810.7169 646.11,816.6969 " fill="none" id="CheckCart-to-RemoveProductFromCart" style="stroke:#181818;stroke-width:1.0;stroke-dasharray:7.0,7.0;"/><polygon fill="#181818" points="651.06,817.5569,642.8812,812.0699,646.1344,816.6978,641.5066,819.951,651.06,817.5569" style="stroke:#181818;stroke-width:1.0;"/><text fill="#000000" font-family="sans-serif" font-size="13" lengthAdjust="spacing" textLength="45" x="458" y="766.3638">include</text></g><!--MD5=[65588aaa031622283bdf5c956a5f5474]
link CheckCart to EditProductInCart--><g id="link_CheckCart_EditProductInCart"><path d="M365.2,708.6369 C429.15,715.3669 516.38,724.5469 587.54,732.0369 " fill="none" id="CheckCart-to-EditProductInCart" style="stroke:#181818;stroke-width:1.0;stroke-dasharray:7.0,7.0;"/><polygon fill="#181818" points="592.63,732.5769,584.0894,727.672,587.6565,732.0624,583.2662,735.6295,592.63,732.5769" style="stroke:#181818;stroke-width:1.0;"/><text fill="#000000" font-family="sans-serif" font-size="13" lengthAdjust="spacing" textLength="45" x="458" y="716.3638">include</text></g><!--MD5=[256ee012171662e77bb54af48ba4958d]
link CheckCart to ApplyOrder--><g id="link_CheckCart_ApplyOrder"><path d="M368.38,691.5169 C446.49,684.9069 557.56,675.4969 632.42,669.1569 " fill="none" id="CheckCart-to-ApplyOrder" style="stroke:#181818;stroke-width:1.0;stroke-dasharray:7.0,7.0;"/><polygon fill="#181818" points="637.75,668.7069,628.4497,665.4659,632.7672,669.1209,629.1121,673.4384,637.75,668.7069" style="stroke:#181818;stroke-width:1.0;"/><text fill="#000000" font-family="sans-serif" font-size="13" lengthAdjust="spacing" textLength="45" x="458" y="677.3638">include</text></g><!--MD5=[5271017d244a270ca350f326e2eced9c]
link ApplyOrder to TakeawayOrder--><g id="link_ApplyOrder_TakeawayOrder"><path d="M781.36,673.0669 C822.53,679.3869 876.73,686.9669 925,691.2969 C948.41,693.3969 973.71,694.8669 997.42,695.8969 " fill="none" id="ApplyOrder-to-TakeawayOrder" style="stroke:#181818;stroke-width:1.0;stroke-dasharray:7.0,7.0;"/><polygon fill="#181818" points="1002.45,696.1169,993.6301,691.7341,997.4546,695.9022,993.2865,699.7267,1002.45,696.1169" style="stroke:#181818;stroke-width:1.0;"/><text fill="#000000" font-family="sans-serif" font-size="13" lengthAdjust="spacing" textLength="45" x="926" y="687.3638">include</text></g><!--MD5=[da22345f4e58610a5d7731058af36677]
link ApplyOrder to DeliveringOrder--><g id="link_ApplyOrder_DeliveringOrder"><path d="M788.83,654.5369 C852.23,647.8269 943.85,638.1369 1010.04,631.1269 " fill="none" id="ApplyOrder-to-DeliveringOrder" style="stroke:#181818;stroke-width:1.0;stroke-dasharray:7.0,7.0;"/><polygon fill="#181818" points="1015.16,630.5869,1005.7875,627.5608,1010.188,631.1155,1006.6333,635.516,1015.16,630.5869" style="stroke:#181818;stroke-width:1.0;"/><text fill="#000000" font-family="sans-serif" font-size="13" lengthAdjust="spacing" textLength="45" x="926" y="631.3638">include</text></g><!--MD5=[88930c1f41b58b393f2f5d3817aa1bee]
link DeliveringOrder to ChooseAddressToDeliveryOrder--><g id="link_DeliveringOrder_ChooseAddressToDeliveryOrder"><path d="M1181.68,622.2969 C1214.33,622.2969 1252.34,622.2969 1288.43,622.2969 " fill="none" id="DeliveringOrder-to-ChooseAddressToDeliveryOrder" style="stroke:#181818;stroke-width:1.0;stroke-dasharray:7.0,7.0;"/><polygon fill="#181818" points="1293.74,622.2969,1284.74,618.2969,1288.74,622.2969,1284.74,626.2969,1293.74,622.2969" style="stroke:#181818;stroke-width:1.0;"/><text fill="#000000" font-family="sans-serif" font-size="13" lengthAdjust="spacing" textLength="45" x="1218" y="618.3638">include</text></g><!--MD5=[8f65c2e25606e04161f75b8fd9ada956]
link Cli to CheckProfile--><g id="link_Cli_CheckProfile"><path d="M35.34,500.2469 C38.41,448.9169 50.97,357.2869 100,299.2969 C125.69,268.9069 165.26,249.2669 200.23,236.9369 " fill="none" id="Cli-to-CheckProfile" style="stroke:#181818;stroke-width:1.0;"/><polygon fill="#181818" points="205.36,235.1769,195.548,234.3256,200.6325,236.8051,198.1531,241.8896,205.36,235.1769" style="stroke:#181818;stroke-width:1.0;"/></g><!--MD5=[d3b5b1c3b69cf25fa915b03b17d3ab87]
link CheckProfile to UpdateProfile--><g id="link_CheckProfile_UpdateProfile"><path d="M332.58,199.2269 C384.46,181.9769 463.9,156.5669 534,138.2969 C568.38,129.3369 606.87,120.9769 639.37,114.3869 " fill="none" id="CheckProfile-to-UpdateProfile" style="stroke:#181818;stroke-width:1.0;stroke-dasharray:7.0,7.0;"/><polygon fill="#181818" points="644.53,113.3369,634.9179,111.1904,639.6282,114.323,636.4956,119.0333,644.53,113.3369" style="stroke:#181818;stroke-width:1.0;"/><text fill="#000000" font-family="sans-serif" font-size="13" lengthAdjust="spacing" textLength="45" x="458" y="144.3638">include</text></g><!--MD5=[842d2a60b05c095e5a68cce40ea14d56]
@startuml "Retailer"

title Варианты использования приложения "Retailer"

left to right direction

actor :Клиент: as Cli

rectangle "Функционал клиента" {
    usecase "Просмотреть профиль" as CheckProfile
    usecase "Изменить профиль" as UpdateProfile

    usecase "Просмотреть список торговых точек" as ShopList
    usecase "Выбрать торговую точку для заказа" as ChooseShop
    usecase "Проверить наличие (цену) товаров" as ShopProductsInfo
    usecase "Просмотреть информацию о торговой точке" as ShopInfo

    usecase "Получить список товаров" as CliProductsListInfo
    usecase "Получить информацию о товаре" as ShopProductInfo
    usecase "Добавить товар в корзину" as AddProductToCart

    usecase "Просмотреть корзину" as CheckCart
    usecase "Удалить товар" as RemoveProductFromCart
    usecase "Изменить кол-во единиц товара" as EditProductInCart
    usecase "Оформить заказ" as ApplyOrder
    usecase "Выбрать самовывоз" as TakeawayOrder
    usecase "Выбрать доставку" as DeliveringOrder
    usecase "Указать адрес доставки заказа" as ChooseAddressToDeliveryOrder

    usecase "Получить список заказов" as OrdersList
    usecase "Получить информацию о заказе" as OrderInfo
}


Cli - -> ShopList
ShopList ..> ShopInfo : include
ShopList ..> ChooseShop : include
ShopList ..> ShopProductsInfo : include

Cli - -> CliProductsListInfo
CliProductsListInfo ..> AddProductToCart : include
CliProductsListInfo ..> ShopProductInfo : include

Cli - -> OrdersList
OrdersList ..> OrderInfo : include

Cli - -> CheckCart
CheckCart ..> RemoveProductFromCart : include
CheckCart ..> EditProductInCart : include
CheckCart ..> ApplyOrder : include
ApplyOrder ..> TakeawayOrder : include
ApplyOrder ..> DeliveringOrder : include
DeliveringOrder ..> ChooseAddressToDeliveryOrder : include

Cli - -> CheckProfile
CheckProfile ..> UpdateProfile : include


@enduml

PlantUML version 1.2022.5(Sat Apr 30 13:55:52 MSK 2022)
(GPL source distribution)
Java Runtime: OpenJDK Runtime Environment
JVM: OpenJDK 64-Bit Server VM
Default Encoding: UTF-8
Language: en
Country: US
--></g></svg>