<?xml version="1.0" encoding="UTF-8" standalone="no"?><svg xmlns="http://www.w3.org/2000/svg" xmlns:xlink="http://www.w3.org/1999/xlink" contentStyleType="text/css" height="699px" preserveAspectRatio="none" style="width:1407px;height:699px;background:#FFFFFF;" version="1.1" viewBox="0 0 1407 699" width="1407px" zoomAndPan="magnify"><defs/><g><rect height="26.2969" style="stroke:#00000000;stroke-width:1.0;fill:none;" width="404" x="494.5" y="5"/><text fill="#000000" font-family="sans-serif" font-size="14" font-weight="bold" lengthAdjust="spacing" textLength="394" x="499.5" y="22.9951">Варианты использования приложения "Retailer"</text><!--MD5=[6a105816ed1c3cbadebe5677855fc7b9]
cluster Функционал менеджера--><g id="cluster_Функционал менеджера"><rect height="649" rx="2.5" ry="2.5" style="stroke:#181818;stroke-width:1.0;fill:none;" width="1268" x="133" y="44.2969"/><text fill="#000000" font-family="sans-serif" font-size="14" font-weight="bold" lengthAdjust="spacing" textLength="202" x="666" y="59.292">Функционал менеджера</text></g><g id="elem_AdminShopList"><ellipse cx="309.0781" cy="236.1125" fill="#F1F1F1" rx="154.5781" ry="33.3156" style="stroke:#181818;stroke-width:0.5;"/><text fill="#000000" font-family="sans-serif" font-size="14" lengthAdjust="spacing" textLength="280" x="169.0781" y="238.9592">Получить список всех торговых точек</text></g><g id="elem_AdminShopInfo"><ellipse cx="776.1058" cy="236.318" fill="#F1F1F1" rx="168.1058" ry="36.0212" style="stroke:#181818;stroke-width:0.5;"/><text fill="#000000" font-family="sans-serif" font-size="14" lengthAdjust="spacing" textLength="308" x="622.1058" y="239.1647">Получить список товаров торговой точки</text></g><g id="elem_AdminProductEdit"><ellipse cx="1234.2099" cy="296.4389" fill="#F1F1F1" rx="151.2099" ry="32.642" style="stroke:#181818;stroke-width:0.5;"/><text fill="#000000" font-family="sans-serif" font-size="14" lengthAdjust="spacing" textLength="273" x="1097.7099" y="299.2855">Редактировать цену/наличие товара</text></g><g id="elem_AdminShopStaffList"><ellipse cx="775.7643" cy="122.1497" fill="#F1F1F1" rx="199.7643" ry="42.3529" style="stroke:#181818;stroke-width:0.5;"/><text fill="#000000" font-family="sans-serif" font-size="14" lengthAdjust="spacing" textLength="373" x="589.2643" y="124.9964">Просмотреть список сотрудников торговой точки</text></g><g id="elem_RevokeStaff"><ellipse cx="1234.0326" cy="201.1034" fill="#F1F1F1" rx="124.5326" ry="27.3065" style="stroke:#181818;stroke-width:0.5;"/><text fill="#000000" font-family="sans-serif" font-size="14" lengthAdjust="spacing" textLength="217" x="1125.5326" y="203.9501">Забрать доступ у сотрудника</text></g><g id="elem_GrantStaff"><ellipse cx="1233.9721" cy="109.0913" fill="#F1F1F1" rx="134.4721" ry="29.2944" style="stroke:#181818;stroke-width:0.5;"/><text fill="#000000" font-family="sans-serif" font-size="14" lengthAdjust="spacing" textLength="238" x="1114.9721" y="111.938">Дать доступ новому сотруднику</text></g><g id="elem_AdminStaffList"><ellipse cx="308.8991" cy="375.3767" fill="#F1F1F1" rx="135.8991" ry="29.5798" style="stroke:#181818;stroke-width:0.5;"/><text fill="#000000" font-family="sans-serif" font-size="14" lengthAdjust="spacing" textLength="241" x="188.3991" y="378.2234">Получить список пользователей</text></g><g id="elem_AdminStaffCreate"><ellipse cx="776.1802" cy="423.1329" fill="#F1F1F1" rx="122.1802" ry="26.836" style="stroke:#181818;stroke-width:0.5;"/><text fill="#000000" font-family="sans-serif" font-size="14" lengthAdjust="spacing" textLength="212" x="670.1802" y="425.9796">Создать аккаунт сотруднику</text></g><g id="elem_AdminStaffRemove"><ellipse cx="776.1802" cy="334.1329" fill="#F1F1F1" rx="122.1802" ry="26.836" style="stroke:#181818;stroke-width:0.5;"/><text fill="#000000" font-family="sans-serif" font-size="14" lengthAdjust="spacing" textLength="212" x="670.1802" y="336.9796">Удалить аккаунт сотрудника</text></g><g id="elem_AdminProductList"><ellipse cx="308.8827" cy="474.1734" fill="#F1F1F1" rx="159.8827" ry="34.3765" style="stroke:#181818;stroke-width:0.5;"/><text fill="#000000" font-family="sans-serif" font-size="14" lengthAdjust="spacing" textLength="291" x="163.3827" y="477.0201">Получить базовый ассортимент товара</text></g><g id="elem_AdminEditProduct"><ellipse cx="776.0183" cy="652.3005" fill="#F1F1F1" rx="110.5183" ry="24.5037" style="stroke:#181818;stroke-width:0.5;"/><text fill="#000000" font-family="sans-serif" font-size="14" lengthAdjust="spacing" textLength="187" x="682.5183" y="655.1472">Редактировать описание</text></g><g id="elem_AdminAddProduct"><ellipse cx="776.1963" cy="574.2361" fill="#F1F1F1" rx="80.1963" ry="18.4393" style="stroke:#181818;stroke-width:0.5;"/><text fill="#000000" font-family="sans-serif" font-size="14" lengthAdjust="spacing" textLength="119" x="715.1039" y="577.5948">Добавить товар</text></g><g id="elem_AdminRemoveProduct"><ellipse cx="775.7754" cy="503.3519" fill="#F1F1F1" rx="75.7754" ry="17.5551" style="stroke:#181818;stroke-width:0.5;"/><text fill="#000000" font-family="sans-serif" font-size="14" lengthAdjust="spacing" textLength="108" x="718.7754" y="507.0995">Удалить товар</text></g><g id="elem_AdminGetStat"><ellipse cx="309.0183" cy="568.3005" fill="#F1F1F1" rx="110.5183" ry="24.5037" style="stroke:#181818;stroke-width:0.5;"/><text fill="#000000" font-family="sans-serif" font-size="14" lengthAdjust="spacing" textLength="187" x="215.5183" y="571.1472">Просмотреть статистику</text></g><g id="elem_AdminOrdersList"><ellipse cx="309.0935" cy="652.1156" fill="#F1F1F1" rx="109.5935" ry="24.3187" style="stroke:#181818;stroke-width:0.5;"/><text fill="#000000" font-family="sans-serif" font-size="14" lengthAdjust="spacing" textLength="185" x="216.5935" y="654.9623">Получить список заказов</text></g><!--MD5=[97ab183161fd5d1db7fba7485cf76add]
entity Admin--><g id="elem_Admin"><ellipse cx="46" cy="444.7969" fill="#F1F1F1" rx="8" ry="8" style="stroke:#181818;stroke-width:0.5;"/><path d="M46,452.7969 L46,479.7969 M33,460.7969 L59,460.7969 M46,479.7969 L33,494.7969 M46,479.7969 L59,494.7969 " fill="none" style="stroke:#181818;stroke-width:0.5;"/><text fill="#000000" font-family="sans-serif" font-size="14" lengthAdjust="spacing" textLength="80" x="6" y="509.292">Менеджер</text></g><!--MD5=[d357bb6a6979d42bc8233105fd1c23a5]
link Admin to AdminShopList--><g id="link_Admin_AdminShopList"><path d="M59.92,436.0569 C72.38,403.9469 93.94,358.5969 125,328.2969 C152.05,301.9069 188.18,281.5769 221.19,266.8169 " fill="none" id="Admin-to-AdminShopList" style="stroke:#181818;stroke-width:1.0;"/><polygon fill="#181818" points="226.03,264.6769,216.1811,264.6712,221.4598,266.7049,219.426,271.9835,226.03,264.6769" style="stroke:#181818;stroke-width:1.0;"/></g><!--MD5=[02b8ac0be18ae048992e76526612d10b]
link AdminShopList to AdminShopStaffList--><g id="link_AdminShopList_AdminShopStaffList"><path d="M412.05,211.2769 C478.75,194.9269 566.64,173.3769 639.22,155.5869 " fill="none" id="AdminShopList-to-AdminShopStaffList" style="stroke:#181818;stroke-width:1.0;stroke-dasharray:7.0,7.0;"/><polygon fill="#181818" points="644.42,154.3069,634.7281,152.5554,639.5626,155.4926,636.6254,160.3271,644.42,154.3069" style="stroke:#181818;stroke-width:1.0;"/><text fill="#000000" font-family="sans-serif" font-size="13" lengthAdjust="spacing" textLength="45" x="500" y="175.3638">include</text></g><!--MD5=[df5eb1e77ba7d6bc3b69c604da1277b4]
link AdminShopStaffList to RevokeStaff--><g id="link_AdminShopStaffList_RevokeStaff"><path d="M931.7,149.0969 C997.14,160.4369 1071.59,173.3369 1130.11,183.4769 " fill="none" id="AdminShopStaffList-to-RevokeStaff" style="stroke:#181818;stroke-width:1.0;stroke-dasharray:7.0,7.0;"/><polygon fill="#181818" points="1135.37,184.3869,1127.1885,178.904,1130.4439,183.5302,1125.8177,186.7857,1135.37,184.3869" style="stroke:#181818;stroke-width:1.0;"/><text fill="#000000" font-family="sans-serif" font-size="13" lengthAdjust="spacing" textLength="45" x="1007" y="160.3638">include</text></g><!--MD5=[25ab21271c5e23992971a2a885428727]
link AdminShopStaffList to GrantStaff--><g id="link_AdminShopStaffList_GrantStaff"><path d="M974.36,116.6669 C1015.13,115.5069 1057.23,114.3069 1095.33,113.2169 " fill="none" id="AdminShopStaffList-to-GrantStaff" style="stroke:#181818;stroke-width:1.0;stroke-dasharray:7.0,7.0;"/><polygon fill="#181818" points="1100.43,113.0769,1091.3194,109.3355,1095.432,113.2197,1091.5479,117.3323,1100.43,113.0769" style="stroke:#181818;stroke-width:1.0;"/><text fill="#000000" font-family="sans-serif" font-size="13" lengthAdjust="spacing" textLength="45" x="1007" y="111.3638">include</text></g><!--MD5=[ce7fdc695eea559b6581c3da500ae462]
link AdminShopList to AdminShopInfo--><g id="link_AdminShopList_AdminShopInfo"><path d="M463.55,236.2969 C508.12,236.2969 557.09,236.2969 602.74,236.2969 " fill="none" id="AdminShopList-to-AdminShopInfo" style="stroke:#181818;stroke-width:1.0;stroke-dasharray:7.0,7.0;"/><polygon fill="#181818" points="608,236.2969,599,232.2969,603,236.2969,599,240.2969,608,236.2969" style="stroke:#181818;stroke-width:1.0;"/><text fill="#000000" font-family="sans-serif" font-size="13" lengthAdjust="spacing" textLength="45" x="500" y="232.3638">include</text></g><!--MD5=[8d217d6d34c8c1801cb1c8513481a227]
link AdminShopInfo to AdminProductEdit--><g id="link_AdminShopInfo_AdminProductEdit"><path d="M919.72,255.0769 C977.16,262.6369 1043.04,271.2969 1099.51,278.7369 " fill="none" id="AdminShopInfo-to-AdminProductEdit" style="stroke:#181818;stroke-width:1.0;stroke-dasharray:7.0,7.0;"/><polygon fill="#181818" points="1104.6,279.4069,1096.1892,274.2826,1099.6415,278.7638,1095.1603,282.2162,1104.6,279.4069" style="stroke:#181818;stroke-width:1.0;"/><text fill="#000000" font-family="sans-serif" font-size="13" lengthAdjust="spacing" textLength="45" x="1007" y="264.3638">include</text></g><!--MD5=[6df2051a0b01f1b5ec77aafda0256d51]
link Admin to AdminStaffList--><g id="link_Admin_AdminStaffList"><path d="M86.39,444.3169 C98.31,436.2869 111.77,428.1969 125,422.2969 C149.01,411.5869 175.93,402.9669 201.57,396.1969 " fill="none" id="Admin-to-AdminStaffList" style="stroke:#181818;stroke-width:1.0;"/><polygon fill="#181818" points="206.69,394.8669,196.9737,393.2565,201.8504,396.1232,198.9838,400.9999,206.69,394.8669" style="stroke:#181818;stroke-width:1.0;"/></g><!--MD5=[c8c1b0133e13bb174121de566e85ecb9]
link AdminStaffList to AdminStaffCreate--><g id="link_AdminStaffList_AdminStaffCreate"><path d="M432.17,387.9069 C502.59,395.1769 590.58,404.2569 659.79,411.4069 " fill="none" id="AdminStaffList-to-AdminStaffCreate" style="stroke:#181818;stroke-width:1.0;stroke-dasharray:7.0,7.0;"/><polygon fill="#181818" points="665.16,411.9569,656.6194,407.052,660.1865,411.4424,655.7962,415.0095,665.16,411.9569" style="stroke:#181818;stroke-width:1.0;"/></g><!--MD5=[c3156b025c37c77f90829e3c67a20d4c]
link AdminStaffList to AdminStaffRemove--><g id="link_AdminStaffList_AdminStaffRemove"><path d="M435.22,364.2569 C504.17,358.1769 589.24,350.6769 657.01,344.6969 " fill="none" id="AdminStaffList-to-AdminStaffRemove" style="stroke:#181818;stroke-width:1.0;stroke-dasharray:7.0,7.0;"/><polygon fill="#181818" points="662.28,344.2369,652.9606,341.0512,657.2997,344.6805,653.6704,349.0197,662.28,344.2369" style="stroke:#181818;stroke-width:1.0;"/></g><!--MD5=[9b67a0f0dcb6d1870e237d43939981a6]
link Admin to AdminProductList--><g id="link_Admin_AdminProductList"><path d="M86.07,474.2969 C102.33,474.2969 122.4,474.2969 143.76,474.2969 " fill="none" id="Admin-to-AdminProductList" style="stroke:#181818;stroke-width:1.0;"/><polygon fill="#181818" points="148.92,474.2969,139.92,470.2969,143.92,474.2969,139.92,478.2969,148.92,474.2969" style="stroke:#181818;stroke-width:1.0;"/></g><!--MD5=[ff4d49022fe3e35b644236d89e390321]
link AdminProductList to AdminAddProduct--><g id="link_AdminProductList_AdminAddProduct"><path d="M413.27,500.5969 C462.41,512.7369 522.08,526.9469 576,538.2969 C618.74,547.2969 666.94,556.0569 705.2,562.6769 " fill="none" id="AdminProductList-to-AdminAddProduct" style="stroke:#181818;stroke-width:1.0;stroke-dasharray:7.0,7.0;"/><polygon fill="#181818" points="710.29,563.5569,702.0931,558.097,705.3615,562.714,700.7445,565.9825,710.29,563.5569" style="stroke:#181818;stroke-width:1.0;"/><text fill="#000000" font-family="sans-serif" font-size="13" lengthAdjust="spacing" textLength="45" x="500" y="518.3638">include</text></g><!--MD5=[63155e753e76717b9ab87b087194949c]
link AdminProductList to AdminEditProduct--><g id="link_AdminProductList_AdminEditProduct"><path d="M414.08,500.5169 C433.06,507.4469 452.17,515.9569 469,526.2969 C485.07,536.1669 484.56,544.1669 499,556.2969 C531.01,583.1769 537.66,593.6469 576,610.2969 C606.82,623.6869 642.22,632.9269 674.54,639.2469 " fill="none" id="AdminProductList-to-AdminEditProduct" style="stroke:#181818;stroke-width:1.0;stroke-dasharray:7.0,7.0;"/><polygon fill="#181818" points="679.7,640.2369,671.6149,634.6127,674.7896,639.2948,670.1075,642.4694,679.7,640.2369" style="stroke:#181818;stroke-width:1.0;"/><text fill="#000000" font-family="sans-serif" font-size="13" lengthAdjust="spacing" textLength="45" x="500" y="552.3638">include</text></g><!--MD5=[4c491b109ab3e0bbe33f941af47ca0d8]
link AdminProductList to AdminRemoveProduct--><g id="link_AdminProductList_AdminRemoveProduct"><path d="M462.9,483.8369 C541.3,488.7269 633.43,494.4669 697.18,498.4469 " fill="none" id="AdminProductList-to-AdminRemoveProduct" style="stroke:#181818;stroke-width:1.0;stroke-dasharray:7.0,7.0;"/><polygon fill="#181818" points="702.48,498.7769,693.7495,494.2186,697.4899,498.4623,693.2462,502.2027,702.48,498.7769" style="stroke:#181818;stroke-width:1.0;"/><text fill="#000000" font-family="sans-serif" font-size="13" lengthAdjust="spacing" textLength="45" x="500" y="482.3638">include</text></g><!--MD5=[9a8c525df0954572256b4da20c5cdc7f]
link Admin to AdminGetStat--><g id="link_Admin_AdminGetStat"><path d="M86.29,504.4969 C98.22,512.5369 111.7,520.5669 125,526.2969 C152.59,538.1869 184.04,546.9569 212.98,553.3169 " fill="none" id="Admin-to-AdminGetStat" style="stroke:#181818;stroke-width:1.0;"/><polygon fill="#181818" points="217.98,554.3969,210.0295,548.584,213.0931,553.3395,208.3376,556.4031,217.98,554.3969" style="stroke:#181818;stroke-width:1.0;"/></g><!--MD5=[c473423b232f2c85d63d3b707114acd0]
link Admin to AdminOrdersList--><g id="link_Admin_AdminOrdersList"><path d="M59.17,512.4369 C71.06,543.4769 92.2,585.9869 125,610.2969 C146.94,626.5569 174.12,636.6769 200.76,642.9269 " fill="none" id="Admin-to-AdminOrdersList" style="stroke:#181818;stroke-width:1.0;"/><polygon fill="#181818" points="205.73,644.0469,197.8284,638.1677,200.8521,642.9486,196.0712,645.9724,205.73,644.0469" style="stroke:#181818;stroke-width:1.0;"/></g><!--MD5=[e17a770f6cada0f8a36b96aa03831d2c]
@startuml "Retailer"

title Варианты использования приложения "Retailer"

left to right direction

actor :Менеджер: as Admin


rectangle "Функционал менеджера" {
    usecase "Получить список всех торговых точек" as AdminShopList
	usecase "Получить список товаров торговой точки" as AdminShopInfo
	usecase "Редактировать цену/наличие товара" as AdminProductEdit
    usecase "Просмотреть список сотрудников торговой точки" as AdminShopStaffList
    usecase "Забрать доступ у сотрудника" as RevokeStaff
    usecase "Дать доступ новому сотруднику" as GrantStaff
    usecase "Получить список пользователей" as AdminStaffList
    usecase "Создать аккаунт сотруднику" as AdminStaffCreate
    usecase "Удалить аккаунт сотрудника" as AdminStaffRemove
    usecase "Получить базовый ассортимент товара" as AdminProductList
    usecase "Редактировать описание" as AdminEditProduct
    usecase "Добавить товар" as AdminAddProduct
    usecase "Удалить товар" as AdminRemoveProduct
    usecase "Просмотреть статистику" as AdminGetStat
    usecase "Получить список заказов" as AdminOrdersList
}


Admin - -> AdminShopList
AdminShopList ..> AdminShopStaffList : include
AdminShopStaffList ..> RevokeStaff : include
AdminShopStaffList ..> GrantStaff : include
AdminShopList ..> AdminShopInfo : include
AdminShopInfo ..> AdminProductEdit : include

Admin - -> AdminStaffList
AdminStaffList ..> AdminStaffCreate
AdminStaffList ..> AdminStaffRemove

Admin - -> AdminProductList
AdminProductList ..> AdminAddProduct : include
AdminProductList ..> AdminEditProduct : include
AdminProductList ..> AdminRemoveProduct : include

Admin - -> AdminGetStat
Admin - -> AdminOrdersList


@enduml

PlantUML version 1.2022.5(Sat Apr 30 13:55:52 MSK 2022)
(GPL source distribution)
Java Runtime: OpenJDK Runtime Environment
JVM: OpenJDK 64-Bit Server VM
Default Encoding: UTF-8
Language: en
Country: US
--></g></svg>