<?xml version="1.0" encoding="UTF-8" standalone="no"?><svg xmlns="http://www.w3.org/2000/svg" xmlns:xlink="http://www.w3.org/1999/xlink" contentStyleType="text/css" height="2026px" preserveAspectRatio="none" style="width:1516px;height:2026px;background:#FFFFFF;" version="1.1" viewBox="0 0 1516 2026" width="1516px" zoomAndPan="magnify"><defs/><g><rect height="26.2969" style="stroke:#00000000;stroke-width:1.0;fill:none;" width="404" x="549" y="5"/><text fill="#000000" font-family="sans-serif" font-size="14" font-weight="bold" lengthAdjust="spacing" textLength="394" x="554" y="22.9951">Варианты использования приложения "Retailer"</text><!--MD5=[e3bb9a76d78c097a456e78b69b2bf9f2]
cluster Функционал клиента--><g id="cluster_Функционал клиента"><rect height="918" rx="2.5" ry="2.5" style="stroke:#181818;stroke-width:1.0;fill:none;" width="885.5" x="173.5" y="1102.2969"/><text fill="#000000" font-family="sans-serif" font-size="14" font-weight="bold" lengthAdjust="spacing" textLength="174" x="529.25" y="1117.292">Функционал клиента</text></g><!--MD5=[c44a7da80078f787e5c8cdc56a91de10]
cluster Функционал сотрудника--><g id="cluster_Функционал сотрудника"><rect height="361" rx="2.5" ry="2.5" style="stroke:#181818;stroke-width:1.0;fill:none;" width="1377" x="133" y="717.2969"/><text fill="#000000" font-family="sans-serif" font-size="14" font-weight="bold" lengthAdjust="spacing" textLength="203" x="720" y="732.292">Функционал сотрудника</text></g><!--MD5=[6a105816ed1c3cbadebe5677855fc7b9]
cluster Функционал менеджера--><g id="cluster_Функционал менеджера"><rect height="649" rx="2.5" ry="2.5" style="stroke:#181818;stroke-width:1.0;fill:none;" width="1345" x="165" y="44.2969"/><text fill="#000000" font-family="sans-serif" font-size="14" font-weight="bold" lengthAdjust="spacing" textLength="202" x="736.5" y="59.292">Функционал менеджера</text></g><g id="elem_CheckProfile"><ellipse cx="341.2481" cy="1195.1465" fill="#F1F1F1" rx="102.2481" ry="22.8496" style="stroke:#181818;stroke-width:0.5;"/><text fill="#000000" font-family="sans-serif" font-size="14" lengthAdjust="spacing" textLength="169" x="256.7481" y="1197.9932">Просмотреть профиль</text></g><g id="elem_UpdateProfile"><ellipse cx="862.6144" cy="1158.2198" fill="#F1F1F1" rx="90.1144" ry="20.4229" style="stroke:#181818;stroke-width:0.5;"/><text fill="#000000" font-family="sans-serif" font-size="14" lengthAdjust="spacing" textLength="142" x="791.6144" y="1161.0664">Изменить профиль</text></g><g id="elem_ShopList"><ellipse cx="341.1907" cy="1411.535" fill="#F1F1F1" rx="151.6907" ry="32.7381" style="stroke:#181818;stroke-width:0.5;"/><text fill="#000000" font-family="sans-serif" font-size="14" lengthAdjust="spacing" textLength="274" x="204.1907" y="1414.3817">Просмотреть список торговых точек</text></g><g id="elem_ChooseShop"><ellipse cx="862.3479" cy="1455.2665" fill="#F1F1F1" rx="147.8479" ry="31.9696" style="stroke:#181818;stroke-width:0.5;"/><text fill="#000000" font-family="sans-serif" font-size="14" lengthAdjust="spacing" textLength="266" x="729.3479" y="1458.1131">Выбрать торговую точку для заказа</text></g><g id="elem_ShopProductsInfo"><ellipse cx="862.5139" cy="1357.4997" fill="#F1F1F1" rx="144.0139" ry="31.2028" style="stroke:#181818;stroke-width:0.5;"/><text fill="#000000" font-family="sans-serif" font-size="14" lengthAdjust="spacing" textLength="258" x="733.5139" y="1360.3463">Проверить наличие (цену) товаров</text></g><g id="elem_ShopInfo"><ellipse cx="862.7327" cy="1252.3434" fill="#F1F1F1" rx="180.7327" ry="38.5465" style="stroke:#181818;stroke-width:0.5;"/><text fill="#000000" font-family="sans-serif" font-size="14" lengthAdjust="spacing" textLength="334" x="695.7327" y="1255.1901">Просмотреть информацию о торговой точке</text></g><g id="elem_CliProductsListInfo"><ellipse cx="340.9811" cy="1596.3931" fill="#F1F1F1" rx="110.9811" ry="24.5962" style="stroke:#181818;stroke-width:0.5;"/><text fill="#000000" font-family="sans-serif" font-size="14" lengthAdjust="spacing" textLength="188" x="246.9811" y="1599.2398">Получить список товаров</text></g><g id="elem_ShopProductInfo"><ellipse cx="862.4233" cy="1637.2815" fill="#F1F1F1" rx="135.4233" ry="29.4847" style="stroke:#181818;stroke-width:0.5;"/><text fill="#000000" font-family="sans-serif" font-size="14" lengthAdjust="spacing" textLength="240" x="742.4233" y="1640.1282">Получить информацию о товаре</text></g><g id="elem_AddProductToCart"><ellipse cx="862.2652" cy="1547.4499" fill="#F1F1F1" rx="113.7652" ry="25.153" style="stroke:#181818;stroke-width:0.5;"/><text fill="#000000" font-family="sans-serif" font-size="14" lengthAdjust="spacing" textLength="194" x="765.2652" y="1550.2966">Добавить товар в корзину</text></g><g id="elem_CheckCart"><ellipse cx="341.0673" cy="1763.5103" fill="#F1F1F1" rx="99.0673" ry="22.2135" style="stroke:#181818;stroke-width:0.5;"/><text fill="#000000" font-family="sans-serif" font-size="14" lengthAdjust="spacing" textLength="162" x="260.0673" y="1766.357">Просмотреть корзину</text></g><g id="elem_RemoveProductFromCart"><ellipse cx="862.2754" cy="1893.3519" fill="#F1F1F1" rx="75.7754" ry="17.5551" style="stroke:#181818;stroke-width:0.5;"/><text fill="#000000" font-family="sans-serif" font-size="14" lengthAdjust="spacing" textLength="108" x="805.2754" y="1897.0995">Удалить товар</text></g><g id="elem_EditProductInCart"><ellipse cx="862.6339" cy="1807.3236" fill="#F1F1F1" rx="153.1339" ry="33.0268" style="stroke:#181818;stroke-width:0.5;"/><text fill="#000000" font-family="sans-serif" font-size="14" lengthAdjust="spacing" textLength="277" x="724.1339" y="1810.1703">Изменить количество единиц товара</text></g><g id="elem_ApplyOrder"><ellipse cx="862.4455" cy="1720.486" fill="#F1F1F1" rx="81.4455" ry="18.6891" style="stroke:#181818;stroke-width:0.5;"/><text fill="#000000" font-family="sans-serif" font-size="14" lengthAdjust="spacing" textLength="122" x="800.3109" y="1723.7058">Оформить заказ</text></g><g id="elem_OrdersList"><ellipse cx="341.0935" cy="1919.1156" fill="#F1F1F1" rx="109.5935" ry="24.3187" style="stroke:#181818;stroke-width:0.5;"/><text fill="#000000" font-family="sans-serif" font-size="14" lengthAdjust="spacing" textLength="185" x="248.5935" y="1921.9623">Получить список заказов</text></g><g id="elem_OrderInfo"><ellipse cx="862.4969" cy="1975.4962" fill="#F1F1F1" rx="133.9969" ry="29.1994" style="stroke:#181818;stroke-width:0.5;"/><text fill="#000000" font-family="sans-serif" font-size="14" lengthAdjust="spacing" textLength="237" x="743.9969" y="1978.3429">Получить информацию о заказе</text></g><g id="elem_StaffShopList"><ellipse cx="340.9449" cy="916.0859" fill="#F1F1F1" rx="191.9449" ry="40.789" style="stroke:#181818;stroke-width:0.5;"/><text fill="#000000" font-family="sans-serif" font-size="14" lengthAdjust="spacing" textLength="357" x="162.4449" y="918.9325">Просмотреть список доступных торговых точек</text></g><g id="elem_StaffShopInfo"><ellipse cx="862.3175" cy="922.1604" fill="#F1F1F1" rx="222.3175" ry="46.8635" style="stroke:#181818;stroke-width:0.5;"/><text fill="#000000" font-family="sans-serif" font-size="14" lengthAdjust="spacing" textLength="419" x="652.8175" y="925.0071">Просмотреть информацию о выбранной торговой точке</text></g><g id="elem_StaffShopProductsInfo"><ellipse cx="862.6483" cy="796.2265" fill="#F1F1F1" rx="205.1483" ry="43.4297" style="stroke:#181818;stroke-width:0.5;"/><text fill="#000000" font-family="sans-serif" font-size="14" lengthAdjust="spacing" textLength="384" x="670.6483" y="799.0732">Просмотреть ассортимент товаров торговой точки</text></g><g id="elem_StaffProductListInfo"><ellipse cx="340.8827" cy="1027.1734" fill="#F1F1F1" rx="159.8827" ry="34.3765" style="stroke:#181818;stroke-width:0.5;"/><text fill="#000000" font-family="sans-serif" font-size="14" lengthAdjust="spacing" textLength="291" x="195.3827" y="1030.0201">Получить базовый ассортимент товара</text></g><g id="elem_StaffProductInfo"><ellipse cx="862.7278" cy="1033.1424" fill="#F1F1F1" rx="129.7278" ry="28.3456" style="stroke:#181818;stroke-width:0.5;"/><text fill="#000000" font-family="sans-serif" font-size="14" lengthAdjust="spacing" textLength="228" x="748.7278" y="1035.9891">Просмотреть описание товара</text></g><g id="elem_StaffProductEdit"><ellipse cx="1343.2099" cy="796.4389" fill="#F1F1F1" rx="151.2099" ry="32.642" style="stroke:#181818;stroke-width:0.5;"/><text fill="#000000" font-family="sans-serif" font-size="14" lengthAdjust="spacing" textLength="273" x="1206.7099" y="799.2855">Редактировать цену/наличие товара</text></g><g id="elem_AdminShopList"><ellipse cx="341.0781" cy="236.1125" fill="#F1F1F1" rx="154.5781" ry="33.3156" style="stroke:#181818;stroke-width:0.5;"/><text fill="#000000" font-family="sans-serif" font-size="14" lengthAdjust="spacing" textLength="280" x="201.0781" y="238.9592">Получить список всех торговых точек</text></g><g id="elem_AdminShopInfo"><ellipse cx="862.6058" cy="236.318" fill="#F1F1F1" rx="168.1058" ry="36.0212" style="stroke:#181818;stroke-width:0.5;"/><text fill="#000000" font-family="sans-serif" font-size="14" lengthAdjust="spacing" textLength="308" x="708.6058" y="239.1647">Получить список товаров торговой точки</text></g><g id="elem_AdminProductEdit"><ellipse cx="1343.2099" cy="296.4389" fill="#F1F1F1" rx="151.2099" ry="32.642" style="stroke:#181818;stroke-width:0.5;"/><text fill="#000000" font-family="sans-serif" font-size="14" lengthAdjust="spacing" textLength="273" x="1206.7099" y="299.2855">Редактировать цену/наличие товара</text></g><g id="elem_AdminShopStaffList"><ellipse cx="862.2643" cy="122.1497" fill="#F1F1F1" rx="199.7643" ry="42.3529" style="stroke:#181818;stroke-width:0.5;"/><text fill="#000000" font-family="sans-serif" font-size="14" lengthAdjust="spacing" textLength="373" x="675.7643" y="124.9964">Просмотреть список сотрудников торговой точки</text></g><g id="elem_RevokeStaff"><ellipse cx="1343.0326" cy="201.1034" fill="#F1F1F1" rx="124.5326" ry="27.3065" style="stroke:#181818;stroke-width:0.5;"/><text fill="#000000" font-family="sans-serif" font-size="14" lengthAdjust="spacing" textLength="217" x="1234.5326" y="203.9501">Забрать доступ у сотрудника</text></g><g id="elem_GrantStaff"><ellipse cx="1342.9721" cy="109.0913" fill="#F1F1F1" rx="134.4721" ry="29.2944" style="stroke:#181818;stroke-width:0.5;"/><text fill="#000000" font-family="sans-serif" font-size="14" lengthAdjust="spacing" textLength="238" x="1223.9721" y="111.938">Дать доступ новому сотруднику</text></g><g id="elem_AdminStaffList"><ellipse cx="340.8991" cy="375.3767" fill="#F1F1F1" rx="135.8991" ry="29.5798" style="stroke:#181818;stroke-width:0.5;"/><text fill="#000000" font-family="sans-serif" font-size="14" lengthAdjust="spacing" textLength="241" x="220.3991" y="378.2234">Получить список пользователей</text></g><g id="elem_AdminStaffCreate"><ellipse cx="862.6802" cy="423.1329" fill="#F1F1F1" rx="122.1802" ry="26.836" style="stroke:#181818;stroke-width:0.5;"/><text fill="#000000" font-family="sans-serif" font-size="14" lengthAdjust="spacing" textLength="212" x="756.6802" y="425.9796">Создать аккаунт сотруднику</text></g><g id="elem_AdminStaffRemove"><ellipse cx="862.6802" cy="334.1329" fill="#F1F1F1" rx="122.1802" ry="26.836" style="stroke:#181818;stroke-width:0.5;"/><text fill="#000000" font-family="sans-serif" font-size="14" lengthAdjust="spacing" textLength="212" x="756.6802" y="336.9796">Удалить аккаунт сотрудника</text></g><g id="elem_AdminProductList"><ellipse cx="340.8827" cy="474.1734" fill="#F1F1F1" rx="159.8827" ry="34.3765" style="stroke:#181818;stroke-width:0.5;"/><text fill="#000000" font-family="sans-serif" font-size="14" lengthAdjust="spacing" textLength="291" x="195.3827" y="477.0201">Получить базовый ассортимент товара</text></g><g id="elem_AdminEditProduct"><ellipse cx="862.5183" cy="652.3005" fill="#F1F1F1" rx="110.5183" ry="24.5037" style="stroke:#181818;stroke-width:0.5;"/><text fill="#000000" font-family="sans-serif" font-size="14" lengthAdjust="spacing" textLength="187" x="769.0183" y="655.1472">Редактировать описание</text></g><g id="elem_AdminAddProduct"><ellipse cx="862.6963" cy="574.2361" fill="#F1F1F1" rx="80.1963" ry="18.4393" style="stroke:#181818;stroke-width:0.5;"/><text fill="#000000" font-family="sans-serif" font-size="14" lengthAdjust="spacing" textLength="119" x="801.6039" y="577.5948">Добавить товар</text></g><g id="elem_AdminRemoveProduct"><ellipse cx="862.2754" cy="503.3519" fill="#F1F1F1" rx="75.7754" ry="17.5551" style="stroke:#181818;stroke-width:0.5;"/><text fill="#000000" font-family="sans-serif" font-size="14" lengthAdjust="spacing" textLength="108" x="805.2754" y="507.0995">Удалить товар</text></g><g id="elem_AdminGetStat"><ellipse cx="341.0183" cy="568.3005" fill="#F1F1F1" rx="110.5183" ry="24.5037" style="stroke:#181818;stroke-width:0.5;"/><text fill="#000000" font-family="sans-serif" font-size="14" lengthAdjust="spacing" textLength="187" x="247.5183" y="571.1472">Просмотреть статистику</text></g><g id="elem_AdminOrdersList"><ellipse cx="341.0935" cy="652.1156" fill="#F1F1F1" rx="109.5935" ry="24.3187" style="stroke:#181818;stroke-width:0.5;"/><text fill="#000000" font-family="sans-serif" font-size="14" lengthAdjust="spacing" textLength="185" x="248.5935" y="654.9623">Получить список заказов</text></g><!--MD5=[17b342a17091e2dc73df905bcbb9a63c]
entity Cli--><g id="elem_Cli"><ellipse cx="46" cy="1566.7969" fill="#F1F1F1" rx="8" ry="8" style="stroke:#181818;stroke-width:0.5;"/><path d="M46,1574.7969 L46,1601.7969 M33,1582.7969 L59,1582.7969 M46,1601.7969 L33,1616.7969 M46,1601.7969 L59,1616.7969 " fill="none" style="stroke:#181818;stroke-width:0.5;"/><text fill="#000000" font-family="sans-serif" font-size="14" lengthAdjust="spacing" textLength="55" x="18.5" y="1631.292">Клиент</text></g><!--MD5=[75bcab72e22e3bde62d8cef4f1a817de]
entity Staff--><g id="elem_Staff"><ellipse cx="46" cy="942.7969" fill="#F1F1F1" rx="8" ry="8" style="stroke:#181818;stroke-width:0.5;"/><path d="M46,950.7969 L46,977.7969 M33,958.7969 L59,958.7969 M46,977.7969 L33,992.7969 M46,977.7969 L59,992.7969 " fill="none" style="stroke:#181818;stroke-width:0.5;"/><text fill="#000000" font-family="sans-serif" font-size="14" lengthAdjust="spacing" textLength="80" x="6" y="1007.292">Сотрудник</text></g><!--MD5=[97ab183161fd5d1db7fba7485cf76add]
entity Admin--><g id="elem_Admin"><ellipse cx="46" cy="444.7969" fill="#F1F1F1" rx="8" ry="8" style="stroke:#181818;stroke-width:0.5;"/><path d="M46,452.7969 L46,479.7969 M33,460.7969 L59,460.7969 M46,479.7969 L33,494.7969 M46,479.7969 L59,494.7969 " fill="none" style="stroke:#181818;stroke-width:0.5;"/><text fill="#000000" font-family="sans-serif" font-size="14" lengthAdjust="spacing" textLength="80" x="6" y="509.292">Менеджер</text></g><!--MD5=[d357bb6a6979d42bc8233105fd1c23a5]
link Admin to AdminShopList--><g id="link_Admin_AdminShopList"><path d="M59.22,436.2069 C71.35,403.7569 92.81,357.8269 125,328.2969 C156.84,299.0869 199.37,278.2669 238.19,263.9069 " fill="none" id="Admin-to-AdminShopList" style="stroke:#181818;stroke-width:1.0;"/><polygon fill="#181818" points="242.9,262.1869,233.0742,261.513,238.2027,263.9002,235.8155,269.0287,242.9,262.1869" style="stroke:#181818;stroke-width:1.0;"/></g><!--MD5=[02b8ac0be18ae048992e76526612d10b]
link AdminShopList to AdminShopStaffList--><g id="link_AdminShopList_AdminShopStaffList"><path d="M450.27,212.5369 C527.83,195.5169 633.07,172.4269 717.68,153.8569 " fill="none" id="AdminShopList-to-AdminShopStaffList" style="stroke:#181818;stroke-width:1.0;stroke-dasharray:7.0,7.0;"/><polygon fill="#181818" points="722.71,152.7569,713.0621,150.7776,717.8261,153.8279,714.7757,158.5919,722.71,152.7569" style="stroke:#181818;stroke-width:1.0;"/><text fill="#000000" font-family="sans-serif" font-size="13" lengthAdjust="spacing" textLength="45" x="564" y="175.3638">include</text></g><!--MD5=[df5eb1e77ba7d6bc3b69c604da1277b4]
link AdminShopStaffList to RevokeStaff--><g id="link_AdminShopStaffList_RevokeStaff"><path d="M1020.84,148.2769 C1091.98,160.0169 1174.1,173.5769 1237.5,184.0469 " fill="none" id="AdminShopStaffList-to-RevokeStaff" style="stroke:#181818;stroke-width:1.0;stroke-dasharray:7.0,7.0;"/><polygon fill="#181818" points="1242.8,184.9169,1234.5724,179.5033,1237.8669,184.1018,1233.2683,187.3963,1242.8,184.9169" style="stroke:#181818;stroke-width:1.0;"/><text fill="#000000" font-family="sans-serif" font-size="13" lengthAdjust="spacing" textLength="45" x="1116" y="160.3638">include</text></g><!--MD5=[25ab21271c5e23992971a2a885428727]
link AdminShopStaffList to GrantStaff--><g id="link_AdminShopStaffList_GrantStaff"><path d="M1061.23,116.9269 C1109.29,115.6169 1159.66,114.2469 1204.25,113.0369 " fill="none" id="AdminShopStaffList-to-GrantStaff" style="stroke:#181818;stroke-width:1.0;stroke-dasharray:7.0,7.0;"/><polygon fill="#181818" points="1209.38,112.8969,1200.2802,109.1295,1204.3817,113.0254,1200.4858,117.1269,1209.38,112.8969" style="stroke:#181818;stroke-width:1.0;"/><text fill="#000000" font-family="sans-serif" font-size="13" lengthAdjust="spacing" textLength="45" x="1116" y="110.3638">include</text></g><!--MD5=[ce7fdc695eea559b6581c3da500ae462]
link AdminShopList to AdminShopInfo--><g id="link_AdminShopList_AdminShopInfo"><path d="M495.76,236.2969 C556.43,236.2969 626.43,236.2969 688.83,236.2969 " fill="none" id="AdminShopList-to-AdminShopInfo" style="stroke:#181818;stroke-width:1.0;stroke-dasharray:7.0,7.0;"/><polygon fill="#181818" points="694.08,236.2969,685.08,232.2969,689.08,236.2969,685.08,240.2969,694.08,236.2969" style="stroke:#181818;stroke-width:1.0;"/><text fill="#000000" font-family="sans-serif" font-size="13" lengthAdjust="spacing" textLength="45" x="564" y="232.3638">include</text></g><!--MD5=[8d217d6d34c8c1801cb1c8513481a227]
link AdminShopInfo to AdminProductEdit--><g id="link_AdminShopInfo_AdminProductEdit"><path d="M1008.04,254.4169 C1071.19,262.3369 1144.85,271.5769 1206.89,279.3569 " fill="none" id="AdminShopInfo-to-AdminProductEdit" style="stroke:#181818;stroke-width:1.0;stroke-dasharray:7.0,7.0;"/><polygon fill="#181818" points="1212.09,280.0069,1203.6485,274.9334,1207.1277,279.3937,1202.6674,282.873,1212.09,280.0069" style="stroke:#181818;stroke-width:1.0;"/><text fill="#000000" font-family="sans-serif" font-size="13" lengthAdjust="spacing" textLength="45" x="1116" y="264.3638">include</text></g><!--MD5=[6df2051a0b01f1b5ec77aafda0256d51]
link Admin to AdminStaffList--><g id="link_Admin_AdminStaffList"><path d="M86.25,444.0069 C98.18,435.9669 111.67,427.9569 125,422.2969 C155.54,409.3269 190.11,399.7469 222.45,392.7469 " fill="none" id="Admin-to-AdminStaffList" style="stroke:#181818;stroke-width:1.0;"/><polygon fill="#181818" points="227.63,391.6469,217.9933,389.6137,222.7402,392.6906,219.6633,397.4375,227.63,391.6469" style="stroke:#181818;stroke-width:1.0;"/></g><!--MD5=[c8c1b0133e13bb174121de566e85ecb9]
link AdminStaffList to AdminStaffCreate--><g id="link_AdminStaffList_AdminStaffCreate"><path d="M466.43,386.7969 C550.73,394.5869 661.41,404.8069 744.17,412.4569 " fill="none" id="AdminStaffList-to-AdminStaffCreate" style="stroke:#181818;stroke-width:1.0;stroke-dasharray:7.0,7.0;"/><polygon fill="#181818" points="749.58,412.9569,740.9978,408.1251,744.6023,412.4849,740.2426,416.0894,749.58,412.9569" style="stroke:#181818;stroke-width:1.0;"/></g><!--MD5=[c3156b025c37c77f90829e3c67a20d4c]
link AdminStaffList to AdminStaffRemove--><g id="link_AdminStaffList_AdminStaffRemove"><path d="M469.08,365.2669 C552.27,358.7069 660.26,350.1769 741.9,343.7369 " fill="none" id="AdminStaffList-to-AdminStaffRemove" style="stroke:#181818;stroke-width:1.0;stroke-dasharray:7.0,7.0;"/><polygon fill="#181818" points="747.23,343.3169,737.9389,340.0494,742.246,343.7167,738.5787,348.0238,747.23,343.3169" style="stroke:#181818;stroke-width:1.0;"/></g><!--MD5=[9b67a0f0dcb6d1870e237d43939981a6]
link Admin to AdminProductList--><g id="link_Admin_AdminProductList"><path d="M86.21,474.2969 C109.97,474.2969 142.06,474.2969 175.42,474.2969 " fill="none" id="Admin-to-AdminProductList" style="stroke:#181818;stroke-width:1.0;"/><polygon fill="#181818" points="180.78,474.2969,171.78,470.2969,175.78,474.2969,171.78,478.2969,180.78,474.2969" style="stroke:#181818;stroke-width:1.0;"/></g><!--MD5=[ff4d49022fe3e35b644236d89e390321]
link AdminProductList to AdminAddProduct--><g id="link_AdminProductList_AdminAddProduct"><path d="M451.77,499.2569 C507.93,511.6769 577.47,526.5069 640,538.2969 C689.95,547.7169 746.52,556.8869 789.99,563.6069 " fill="none" id="AdminProductList-to-AdminAddProduct" style="stroke:#181818;stroke-width:1.0;stroke-dasharray:7.0,7.0;"/><polygon fill="#181818" points="794.95,564.3769,786.6594,559.0603,790.0076,563.6198,785.4481,566.968,794.95,564.3769" style="stroke:#181818;stroke-width:1.0;"/><text fill="#000000" font-family="sans-serif" font-size="13" lengthAdjust="spacing" textLength="45" x="564" y="520.3638">include</text></g><!--MD5=[63155e753e76717b9ab87b087194949c]
link AdminProductList to AdminEditProduct--><g id="link_AdminProductList_AdminEditProduct"><path d="M462.91,496.6869 C487.1,504.0169 511.62,513.6669 533,526.2969 C549.51,536.0569 548.36,544.9069 563,557.2969 C594.71,584.1369 601.66,594.3069 640,610.2969 C676.47,625.5069 718.63,635.2569 756.32,641.4769 " fill="none" id="AdminProductList-to-AdminEditProduct" style="stroke:#181818;stroke-width:1.0;stroke-dasharray:7.0,7.0;"/><polygon fill="#181818" points="761.36,642.2969,753.1147,636.9103,756.4242,641.498,751.8365,644.8076,761.36,642.2969" style="stroke:#181818;stroke-width:1.0;"/><text fill="#000000" font-family="sans-serif" font-size="13" lengthAdjust="spacing" textLength="45" x="564" y="553.3638">include</text></g><!--MD5=[4c491b109ab3e0bbe33f941af47ca0d8]
link AdminProductList to AdminRemoveProduct--><g id="link_AdminProductList_AdminRemoveProduct"><path d="M496.11,482.8969 C590.47,488.1669 707.25,494.6869 783.01,498.9169 " fill="none" id="AdminProductList-to-AdminRemoveProduct" style="stroke:#181818;stroke-width:1.0;stroke-dasharray:7.0,7.0;"/><polygon fill="#181818" points="788.39,499.2169,779.6201,494.7349,783.3974,498.9458,779.1864,502.7231,788.39,499.2169" style="stroke:#181818;stroke-width:1.0;"/><text fill="#000000" font-family="sans-serif" font-size="13" lengthAdjust="spacing" textLength="45" x="564" y="483.3638">include</text></g><!--MD5=[9a8c525df0954572256b4da20c5cdc7f]
link Admin to AdminGetStat--><g id="link_Admin_AdminGetStat"><path d="M86.17,504.7769 C98.1,512.8169 111.61,520.7869 125,526.2969 C160.03,540.7169 200.35,550.2669 236.53,556.5669 " fill="none" id="Admin-to-AdminGetStat" style="stroke:#181818;stroke-width:1.0;"/><polygon fill="#181818" points="241.84,557.4769,233.6431,552.017,236.9115,556.634,232.2945,559.9025,241.84,557.4769" style="stroke:#181818;stroke-width:1.0;"/></g><!--MD5=[c473423b232f2c85d63d3b707114acd0]
link Admin to AdminOrdersList--><g id="link_Admin_AdminOrdersList"><path d="M58.85,512.3969 C70.59,543.6369 91.7,586.4469 125,610.2969 C154.47,631.4069 191.8,642.6169 227.05,648.3769 " fill="none" id="Admin-to-AdminOrdersList" style="stroke:#181818;stroke-width:1.0;"/><polygon fill="#181818" points="232.23,649.1869,223.972,643.8199,227.2924,648.3997,222.7125,651.7201,232.23,649.1869" style="stroke:#181818;stroke-width:1.0;"/></g><!--MD5=[8921a1c96290a28abd59605ab51e5628]
link Staff to StaffShopList--><g id="link_Staff_StaffShopList"><path d="M86.21,964.8069 C113.89,959.5069 152.89,952.0569 192.03,944.5769 " fill="none" id="Staff-to-StaffShopList" style="stroke:#181818;stroke-width:1.0;"/><polygon fill="#181818" points="197.3,943.5669,187.7075,941.3343,192.3896,944.509,189.2149,949.191,197.3,943.5669" style="stroke:#181818;stroke-width:1.0;"/></g><!--MD5=[967cfc80a5acc0716495fcd374619bed]
link StaffShopList to StaffShopInfo--><g id="link_StaffShopList_StaffShopInfo"><path d="M532.86,918.4969 C566.1,918.8869 600.97,919.2869 635.06,919.6769 " fill="none" id="StaffShopList-to-StaffShopInfo" style="stroke:#181818;stroke-width:1.0;stroke-dasharray:7.0,7.0;"/><polygon fill="#181818" points="640.08,919.7369,631.1263,915.6343,635.0803,919.6797,631.0349,923.6338,640.08,919.7369" style="stroke:#181818;stroke-width:1.0;"/><text fill="#000000" font-family="sans-serif" font-size="13" lengthAdjust="spacing" textLength="45" x="564" y="915.3638">include</text></g><!--MD5=[2b4ad20eb8d5ad500d20dc057731306c]
link StaffShopList to StaffShopProductsInfo--><g id="link_StaffShopList_StaffShopProductsInfo"><path d="M472.09,886.2469 C546.93,868.9569 641.1,847.2069 718.08,829.4269 " fill="none" id="StaffShopList-to-StaffShopProductsInfo" style="stroke:#181818;stroke-width:1.0;stroke-dasharray:7.0,7.0;"/><polygon fill="#181818" points="723.12,828.2569,713.4547,826.3644,718.2459,829.3718,715.2385,834.163,723.12,828.2569" style="stroke:#181818;stroke-width:1.0;"/><text fill="#000000" font-family="sans-serif" font-size="13" lengthAdjust="spacing" textLength="45" x="564" y="852.3638">include</text></g><!--MD5=[3c31282657f41e9e9250bc6f393b784d]
link Staff to StaffProductListInfo--><g id="link_Staff_StaffProductListInfo"><path d="M86.21,979.6569 C119.24,985.8569 168.36,995.0769 214.62,1003.7569 " fill="none" id="Staff-to-StaffProductListInfo" style="stroke:#181818;stroke-width:1.0;"/><polygon fill="#181818" points="219.66,1004.7069,211.5435,999.1282,214.7443,1003.7923,210.0802,1006.9932,219.66,1004.7069" style="stroke:#181818;stroke-width:1.0;"/></g><!--MD5=[cfb768fc9209d54b69270f0ca48a4fb7]
link StaffProductListInfo to StaffProductInfo--><g id="link_StaffProductListInfo_StaffProductInfo"><path d="M501.04,1029.1369 C573.59,1029.9669 658.53,1030.9569 727.73,1031.7469 " fill="none" id="StaffProductListInfo-to-StaffProductInfo" style="stroke:#181818;stroke-width:1.0;stroke-dasharray:7.0,7.0;"/><polygon fill="#181818" points="733.1,1031.8169,724.1463,1027.7143,728.1003,1031.7597,724.0549,1035.7138,733.1,1031.8169" style="stroke:#181818;stroke-width:1.0;"/><text fill="#000000" font-family="sans-serif" font-size="13" lengthAdjust="spacing" textLength="45" x="564" y="1026.3638">include</text></g><!--MD5=[df13b129d00297dc47225d73e8d29278]
link StaffShopProductsInfo to StaffProductEdit--><g id="link_StaffShopProductsInfo_StaffProductEdit"><path d="M1067.82,796.2969 C1107.68,796.2969 1148.87,796.2969 1186.83,796.2969 " fill="none" id="StaffShopProductsInfo-to-StaffProductEdit" style="stroke:#181818;stroke-width:1.0;stroke-dasharray:7.0,7.0;"/><polygon fill="#181818" points="1191.92,796.2969,1182.92,792.2969,1186.92,796.2969,1182.92,800.2969,1191.92,796.2969" style="stroke:#181818;stroke-width:1.0;"/><text fill="#000000" font-family="sans-serif" font-size="13" lengthAdjust="spacing" textLength="45" x="1116" y="792.3638">include</text></g><!--MD5=[6067f9fa56097e5954c0abe0b4f79448]
link Cli to ShopList--><g id="link_Cli_ShopList"><path d="M73.52,1579.5569 C121.53,1549.2369 223.7,1484.7269 286.66,1444.9769 " fill="none" id="Cli-to-ShopList" style="stroke:#181818;stroke-width:1.0;"/><polygon fill="#181818" points="291.12,1442.1569,281.3748,1443.5821,286.8929,1444.8274,285.6476,1450.3455,291.12,1442.1569" style="stroke:#181818;stroke-width:1.0;"/></g><!--MD5=[804380bb230811bd8c8f652427b7cada]
link ShopList to ShopInfo--><g id="link_ShopList_ShopInfo"><path d="M417.67,1383.1469 C477.56,1361.3469 563.55,1331.1269 640,1308.2969 C670.85,1299.0869 704.39,1290.0869 735.83,1282.0869 " fill="none" id="ShopList-to-ShopInfo" style="stroke:#181818;stroke-width:1.0;stroke-dasharray:7.0,7.0;"/><polygon fill="#181818" points="740.86,1280.8169,731.1527,1279.1528,736.0135,1282.0464,733.1199,1286.9071,740.86,1280.8169" style="stroke:#181818;stroke-width:1.0;"/><text fill="#000000" font-family="sans-serif" font-size="13" lengthAdjust="spacing" textLength="45" x="564" y="1315.3638">include</text></g><!--MD5=[20c6b56921887d7003228566dc3680bc]
link ShopList to ChooseShop--><g id="link_ShopList_ChooseShop"><path d="M471.59,1427.7869 C501.57,1431.2569 533.37,1434.6669 563,1437.2969 C611.65,1441.6169 664.85,1445.1969 712.69,1447.9969 " fill="none" id="ShopList-to-ChooseShop" style="stroke:#181818;stroke-width:1.0;stroke-dasharray:7.0,7.0;"/><polygon fill="#181818" points="717.9,1448.2969,709.1557,1443.765,712.909,1447.9974,708.6766,1451.7507,717.9,1448.2969" style="stroke:#181818;stroke-width:1.0;"/><text fill="#000000" font-family="sans-serif" font-size="13" lengthAdjust="spacing" textLength="45" x="564" y="1433.3638">include</text></g><!--MD5=[2c265ac1cf18bf4d18f07cf968cd0256]
link ShopList to ShopProductsInfo--><g id="link_ShopList_ShopProductsInfo"><path d="M477.81,1397.1769 C554.74,1389.1869 650.61,1379.2169 727.27,1371.2469 " fill="none" id="ShopList-to-ShopProductsInfo" style="stroke:#181818;stroke-width:1.0;stroke-dasharray:7.0,7.0;"/><polygon fill="#181818" points="732.29,1370.7269,722.9262,1367.6742,727.3165,1371.2414,723.7494,1375.6317,732.29,1370.7269" style="stroke:#181818;stroke-width:1.0;"/><text fill="#000000" font-family="sans-serif" font-size="13" lengthAdjust="spacing" textLength="45" x="564" y="1380.3638">include</text></g><!--MD5=[32c727398edbb3823fa20be1cdda53d4]
link Cli to CliProductsListInfo--><g id="link_Cli_CliProductsListInfo"><path d="M73.52,1596.2969 C107.64,1596.2969 169.1,1596.2969 224.41,1596.2969 " fill="none" id="Cli-to-CliProductsListInfo" style="stroke:#181818;stroke-width:1.0;"/><polygon fill="#181818" points="229.74,1596.2969,220.74,1592.2969,224.74,1596.2969,220.74,1600.2969,229.74,1596.2969" style="stroke:#181818;stroke-width:1.0;"/></g><!--MD5=[41296407c6a90132a3c09a1388cf6087]
link CliProductsListInfo to AddProductToCart--><g id="link_CliProductsListInfo_AddProductToCart"><path d="M443.4,1586.7369 C532.22,1578.3569 661,1566.2069 752.12,1557.6169 " fill="none" id="CliProductsListInfo-to-AddProductToCart" style="stroke:#181818;stroke-width:1.0;stroke-dasharray:7.0,7.0;"/><polygon fill="#181818" points="757.24,1557.1269,747.9034,1553.9919,752.2622,1557.5976,748.6565,1561.9563,757.24,1557.1269" style="stroke:#181818;stroke-width:1.0;"/><text fill="#000000" font-family="sans-serif" font-size="13" lengthAdjust="spacing" textLength="45" x="564" y="1568.3638">include</text></g><!--MD5=[a9e20ef82fd2df3233cb64bab547630a]
link CliProductsListInfo to ShopProductInfo--><g id="link_CliProductsListInfo_ShopProductInfo"><path d="M435.39,1609.2769 C474.72,1614.3369 521.02,1619.7569 563,1623.2969 C615.1,1627.6969 672.45,1630.7969 722.83,1632.9469 " fill="none" id="CliProductsListInfo-to-ShopProductInfo" style="stroke:#181818;stroke-width:1.0;stroke-dasharray:7.0,7.0;"/><polygon fill="#181818" points="728,1633.1669,719.1795,1628.7852,723.0046,1632.9528,718.837,1636.7778,728,1633.1669" style="stroke:#181818;stroke-width:1.0;"/><text fill="#000000" font-family="sans-serif" font-size="13" lengthAdjust="spacing" textLength="45" x="564" y="1619.3638">include</text></g><!--MD5=[6024fd520c61a01e1b7d5def2545aea9]
link Cli to OrdersList--><g id="link_Cli_OrdersList"><path d="M53.03,1634.4369 C61.86,1679.4269 82.17,1754.2769 125,1803.2969 C164.39,1848.3769 225.71,1879.0069 272.8,1897.4269 " fill="none" id="Cli-to-OrdersList" style="stroke:#181818;stroke-width:1.0;"/><polygon fill="#181818" points="277.6,1899.2769,270.6473,1892.3012,272.9362,1897.4743,267.7632,1899.7633,277.6,1899.2769" style="stroke:#181818;stroke-width:1.0;"/></g><!--MD5=[d2f4681e6d802c7c9bd19a47898f6760]
link OrdersList to OrderInfo--><g id="link_OrdersList_OrderInfo"><path d="M440.02,1929.8669 C524.14,1938.9269 645.85,1952.0469 736.88,1961.8669 " fill="none" id="OrdersList-to-OrderInfo" style="stroke:#181818;stroke-width:1.0;stroke-dasharray:7.0,7.0;"/><polygon fill="#181818" points="742.01,1962.4169,733.4833,1957.4878,737.038,1961.8882,732.6375,1965.4429,742.01,1962.4169" style="stroke:#181818;stroke-width:1.0;"/><text fill="#000000" font-family="sans-serif" font-size="13" lengthAdjust="spacing" textLength="45" x="564" y="1939.3638">include</text></g><!--MD5=[eb345b58091a9df7d2aa7d5bccedd9b1]
link Cli to CheckCart--><g id="link_Cli_CheckCart"><path d="M73.52,1611.4069 C124.87,1640.6769 238.16,1705.2569 299.18,1740.0269 " fill="none" id="Cli-to-CheckCart" style="stroke:#181818;stroke-width:1.0;"/><polygon fill="#181818" points="303.84,1742.6869,297.9963,1734.759,299.4944,1740.2139,294.0395,1741.712,303.84,1742.6869" style="stroke:#181818;stroke-width:1.0;"/></g><!--MD5=[88636d4e97166afe780e986591c59eda]
link CheckCart to RemoveProductFromCart--><g id="link_CheckCart_RemoveProductFromCart"><path d="M392.75,1782.0869 C451.53,1803.2269 551.63,1837.3569 640,1858.2969 C689.43,1870.0069 746.01,1878.8769 789.61,1884.7469 " fill="none" id="CheckCart-to-RemoveProductFromCart" style="stroke:#181818;stroke-width:1.0;stroke-dasharray:7.0,7.0;"/><polygon fill="#181818" points="794.59,1885.4169,786.2083,1880.2451,789.6352,1884.7458,785.1346,1888.1727,794.59,1885.4169" style="stroke:#181818;stroke-width:1.0;"/><text fill="#000000" font-family="sans-serif" font-size="13" lengthAdjust="spacing" textLength="45" x="564" y="1834.3638">include</text></g><!--MD5=[65588aaa031622283bdf5c956a5f5474]
link CheckCart to EditProductInCart--><g id="link_CheckCart_EditProductInCart"><path d="M433.68,1771.0669 C511.44,1777.6469 624.42,1787.2169 714.75,1794.8669 " fill="none" id="CheckCart-to-EditProductInCart" style="stroke:#181818;stroke-width:1.0;stroke-dasharray:7.0,7.0;"/><polygon fill="#181818" points="719.84,1795.2969,711.2168,1790.5387,714.8585,1794.8674,710.5297,1798.5091,719.84,1795.2969" style="stroke:#181818;stroke-width:1.0;"/><text fill="#000000" font-family="sans-serif" font-size="13" lengthAdjust="spacing" textLength="45" x="564" y="1778.3638">include</text></g><!--MD5=[256ee012171662e77bb54af48ba4958d]
link CheckCart to ApplyOrder--><g id="link_CheckCart_ApplyOrder"><path d="M433.98,1755.6869 C532.23,1747.5469 686.45,1734.7869 780.33,1727.0169 " fill="none" id="CheckCart-to-ApplyOrder" style="stroke:#181818;stroke-width:1.0;stroke-dasharray:7.0,7.0;"/><polygon fill="#181818" points="785.59,1726.5769,776.2897,1723.3359,780.6072,1726.9909,776.9521,1731.3084,785.59,1726.5769" style="stroke:#181818;stroke-width:1.0;"/><text fill="#000000" font-family="sans-serif" font-size="13" lengthAdjust="spacing" textLength="45" x="564" y="1737.3638">include</text></g><!--MD5=[8f65c2e25606e04161f75b8fd9ada956]
link Cli to CheckProfile--><g id="link_Cli_CheckProfile"><path d="M52.56,1558.1869 C61.25,1508.9469 81.73,1422.3069 125,1361.2969 C170.06,1297.7669 246.48,1247.1069 295.03,1219.1669 " fill="none" id="Cli-to-CheckProfile" style="stroke:#181818;stroke-width:1.0;"/><polygon fill="#181818" points="299.64,1216.5269,289.8409,1217.5157,295.2979,1219.006,293.8075,1224.463,299.64,1216.5269" style="stroke:#181818;stroke-width:1.0;"/></g><!--MD5=[d3b5b1c3b69cf25fa915b03b17d3ab87]
link CheckProfile to UpdateProfile--><g id="link_CheckProfile_UpdateProfile"><path d="M438.5,1188.4269 C533.68,1181.6469 678.03,1171.3669 771.06,1164.7369 " fill="none" id="CheckProfile-to-UpdateProfile" style="stroke:#181818;stroke-width:1.0;stroke-dasharray:7.0,7.0;"/><polygon fill="#181818" points="776.28,1164.3669,767.0268,1160.9938,771.2918,1164.7099,767.5756,1168.9749,776.28,1164.3669" style="stroke:#181818;stroke-width:1.0;"/><text fill="#000000" font-family="sans-serif" font-size="13" lengthAdjust="spacing" textLength="45" x="564" y="1173.3638">include</text></g><!--MD5=[1b62b9d51964fe48057609379efedabc]
@startuml "Retailer"

title Варианты использования приложения "Retailer"

left to right direction

actor :Клиент: as Cli
actor :Сотрудник: as Staff
actor :Менеджер: as Admin


rectangle "Функционал клиента" {
    usecase "Просмотреть профиль" as CheckProfile
    usecase "Изменить профиль" as UpdateProfile

    usecase "Просмотреть список торговых точек" as ShopList
    usecase "Выбрать торговую точку для заказа" as ChooseShop
    usecase "Проверить наличие (цену) товаров" as ShopProductsInfo
    usecase "Просмотреть информацию о торговой точке" as ShopInfo

    usecase "Получить список товаров" as CliProductsListInfo
    usecase "Получить информацию о товаре" as ShopProductInfo
    usecase "Добавить товар в корзину" as AddProductToCart

    usecase "Просмотреть корзину" as CheckCart
    usecase "Удалить товар" as RemoveProductFromCart
    usecase "Изменить количество единиц товара" as EditProductInCart
    usecase "Оформить заказ" as ApplyOrder

    usecase "Получить список заказов" as OrdersList
    usecase "Получить информацию о заказе" as OrderInfo
}

rectangle "Функционал сотрудника" {
    usecase "Просмотреть список доступных торговых точек" as StaffShopList
    usecase "Просмотреть информацию о выбранной торговой точке" as StaffShopInfo
    usecase "Просмотреть ассортимент товаров торговой точки" as StaffShopProductsInfo
    usecase "Получить базовый ассортимент товара" as StaffProductListInfo
    usecase "Просмотреть описание товара" as StaffProductInfo
    usecase "Редактировать цену/наличие товара" as StaffProductEdit
}

rectangle "Функционал менеджера" {
    usecase "Получить список всех торговых точек" as AdminShopList
	usecase "Получить список товаров торговой точки" as AdminShopInfo
	usecase "Редактировать цену/наличие товара" as AdminProductEdit
    usecase "Просмотреть список сотрудников торговой точки" as AdminShopStaffList
    usecase "Забрать доступ у сотрудника" as RevokeStaff
    usecase "Дать доступ новому сотруднику" as GrantStaff
    usecase "Получить список пользователей" as AdminStaffList
    usecase "Создать аккаунт сотруднику" as AdminStaffCreate
    usecase "Удалить аккаунт сотрудника" as AdminStaffRemove
    usecase "Получить базовый ассортимент товара" as AdminProductList
    usecase "Редактировать описание" as AdminEditProduct
    usecase "Добавить товар" as AdminAddProduct
    usecase "Удалить товар" as AdminRemoveProduct
    usecase "Просмотреть статистику" as AdminGetStat
    usecase "Получить список заказов" as AdminOrdersList
}


Admin - -> AdminShopList
AdminShopList ..> AdminShopStaffList : include
AdminShopStaffList ..> RevokeStaff : include
AdminShopStaffList ..> GrantStaff : include
AdminShopList ..> AdminShopInfo : include
AdminShopInfo ..> AdminProductEdit : include

Admin - -> AdminStaffList
AdminStaffList ..> AdminStaffCreate
AdminStaffList ..> AdminStaffRemove

Admin - -> AdminProductList
AdminProductList ..> AdminAddProduct : include
AdminProductList ..> AdminEditProduct : include
AdminProductList ..> AdminRemoveProduct : include

Admin - -> AdminGetStat
Admin - -> AdminOrdersList


Staff - -> StaffShopList
StaffShopList ..> StaffShopInfo : include
StaffShopList ..> StaffShopProductsInfo : include

Staff - -> StaffProductListInfo
StaffProductListInfo ..> StaffProductInfo : include

StaffShopProductsInfo ..> StaffProductEdit : include


Cli - -> ShopList
ShopList ..> ShopInfo : include
ShopList ..> ChooseShop : include
ShopList ..> ShopProductsInfo : include

Cli - -> CliProductsListInfo
CliProductsListInfo ..> AddProductToCart : include
CliProductsListInfo ..> ShopProductInfo : include

Cli - -> OrdersList
OrdersList ..> OrderInfo : include

Cli - -> CheckCart
CheckCart ..> RemoveProductFromCart : include
CheckCart ..> EditProductInCart : include
CheckCart ..> ApplyOrder : include

Cli - -> CheckProfile
CheckProfile ..> UpdateProfile : include


@enduml

PlantUML version 1.2022.5(Sat Apr 30 13:55:52 MSK 2022)
(GPL source distribution)
Java Runtime: OpenJDK Runtime Environment
JVM: OpenJDK 64-Bit Server VM
Default Encoding: UTF-8
Language: en
Country: US
--></g></svg>